<?xml version="1.0" encoding="utf-8"?>
<!-- Generator: Adobe Illustrator 16.0.0, SVG Export Plug-In . SVG Version: 6.00 Build 0)  -->
<!DOCTYPE svg PUBLIC "-//W3C//DTD SVG 1.1//EN" "http://www.w3.org/Graphics/SVG/1.1/DTD/svg11.dtd">
<svg version="1.1" id="Layer_1" xmlns="http://www.w3.org/2000/svg" xmlns:xlink="http://www.w3.org/1999/xlink" x="0px" y="0px"
	 width="612px" height="792px" viewBox="0 0 612 792" enable-background="new 0 0 612 792" xml:space="preserve">
<g>
	<circle fill="#F1EFEF" cx="188.128" cy="209.493" r="20.166"/>
	<circle fill="#F1EFEF" cx="188.128" cy="271.641" r="20.165"/>
	<circle fill="#F1EFEF" cx="188.128" cy="333.821" r="20.165"/>
	<circle fill="#F1EFEF" cx="239.628" cy="209.493" r="20.166"/>
	<circle fill="#F1EFEF" cx="239.628" cy="271.641" r="20.165"/>
	<circle fill="#F1EFEF" cx="239.628" cy="333.821" r="20.165"/>
	<circle fill="#F1EFEF" cx="291.128" cy="209.493" r="20.166"/>
	<circle fill="#F1EFEF" cx="291.128" cy="271.641" r="20.165"/>
	<circle fill="#F1EFEF" cx="291.128" cy="333.821" r="20.165"/>
	<circle fill="#F1EFEF" cx="188.802" cy="396" r="20.166"/>
	<circle fill="#F1EFEF" cx="188.802" cy="458.179" r="20.166"/>
	<circle fill="#F1EFEF" cx="188.802" cy="520.328" r="20.166"/>
	<circle fill="#F1EFEF" cx="240.302" cy="396" r="20.166"/>
	<circle fill="#F1EFEF" cx="240.302" cy="458.179" r="20.166"/>
	<circle fill="#F1EFEF" cx="240.302" cy="520.328" r="20.166"/>
	<circle fill="#F1EFEF" cx="291.802" cy="396" r="20.166"/>
	<circle fill="#F1EFEF" cx="291.802" cy="458.179" r="20.166"/>
	<circle fill="#F1EFEF" cx="291.802" cy="520.328" r="20.166"/>
</g>
<g>
	<circle fill="#F1EFEF" cx="344.128" cy="209.493" r="20.166"/>
	<circle fill="#F1EFEF" cx="344.128" cy="271.641" r="20.165"/>
	<circle fill="#F1EFEF" cx="344.128" cy="333.821" r="20.165"/>
	<circle fill="#F1EFEF" cx="395.628" cy="209.493" r="20.166"/>
	<circle fill="#F1EFEF" cx="395.628" cy="271.641" r="20.165"/>
	<circle fill="#F1EFEF" cx="395.628" cy="333.821" r="20.165"/>
	<circle fill="#F1EFEF" cx="447.128" cy="209.493" r="20.166"/>
	<circle fill="#F1EFEF" cx="447.128" cy="271.641" r="20.165"/>
	<circle fill="#F1EFEF" cx="447.128" cy="333.821" r="20.165"/>
	<circle fill="#F1EFEF" cx="344.802" cy="396" r="20.166"/>
	<circle fill="#F1EFEF" cx="344.802" cy="458.179" r="20.166"/>
	<circle fill="#F1EFEF" cx="344.802" cy="520.328" r="20.166"/>
	<circle fill="#F1EFEF" cx="396.302" cy="396" r="20.166"/>
	<circle fill="#F1EFEF" cx="396.302" cy="458.179" r="20.166"/>
	<circle fill="#F1EFEF" cx="396.302" cy="520.328" r="20.166"/>
	<circle fill="#F1EFEF" cx="447.802" cy="396" r="20.166"/>
	<circle fill="#F1EFEF" cx="447.802" cy="458.179" r="20.166"/>
	<circle fill="#F1EFEF" cx="447.802" cy="520.328" r="20.166"/>
</g>
</svg>
