<svg width="351" height="209" viewBox="0 0 351 209" fill="none" xmlns="http://www.w3.org/2000/svg">
<path d="M128.699 205.569C39.2902 200.361 -32.4124 105.677 15.1643 50.7275C52.063 8.10932 101.262 70.1427 147.149 38.8883C217.745 -9.19211 332.117 -17.9335 347.257 42.6751C362.392 103.288 312.248 197.994 274.878 203.675C237.507 209.357 128.7 205.569 128.7 205.569" fill="#EFF6FF"/>
<path d="M140.288 77.2433C141.234 99.9723 140.997 112.284 132.719 121.753C124.44 131.221 101.26 128.857 101.26 128.857C101.26 128.857 98.9735 162.319 66.569 163.741C34.1646 165.163 29.5135 122.068 54.9009 111.022C79.0681 100.501 86.7536 97.4454 95.1109 71.4037C102.745 47.6112 126.57 52.1471 132.247 62.0886C137.923 72.0301 140.289 77.2433 140.289 77.2433" fill="#303C60"/>
<path d="M129.644 193.257C129.644 193.257 144.94 196.256 145.728 196.098C146.517 195.939 163.231 188.521 164.966 189.625C166.7 190.73 176.794 194.994 179 195.94C181.207 196.886 177.739 197.202 176.004 197.202C174.27 197.202 164.336 193.099 163.231 193.887C162.127 194.675 171.904 196.256 171.904 196.886C171.904 197.515 145.728 203.517 144.151 203.517C142.574 203.517 130.432 202.413 130.432 202.413L129.644 193.258" fill="#E38540"/>
<path d="M116.95 109.639C125.189 111.257 130.038 119.986 131.615 127.63C133.192 135.273 116.95 109.639 116.95 109.639Z" fill="#6791C9"/>
<path d="M103.151 103.76C103.151 103.76 87.3039 114.415 78.7896 119.625C70.2752 124.835 81.8645 180.945 84.703 201.78C87.5414 222.614 136.74 203.675 136.74 203.675C136.74 203.675 133.428 186.152 137.686 157.979C140.736 137.798 129.565 125.148 123.179 116.388C107.06 94.2795 103.152 103.76 103.152 103.76" fill="#75A1DE"/>
<path d="M87.5408 119.859C105.754 142.117 111.91 146.278 107.41 161.294C103.862 173.131 102.679 177.393 101.969 181.42C101.26 185.447 135.793 178.813 135.793 178.813L135.558 191.837C135.558 191.837 108.357 204.858 95.111 207.462C81.8649 210.065 73.5869 206.99 73.5869 206.99L87.5408 119.859Z" fill="#6791C9"/>
<path d="M315.606 209H100.117C99.37 209 98.6535 208.703 98.1253 208.174C97.597 207.645 97.3003 206.928 97.3003 206.18C97.3003 205.433 97.597 204.716 98.1253 204.187C98.6535 203.658 99.37 203.361 100.117 203.361H315.606C315.976 203.361 316.343 203.434 316.684 203.576C317.026 203.717 317.337 203.925 317.598 204.187C317.86 204.449 318.067 204.759 318.209 205.101C318.35 205.444 318.423 205.81 318.423 206.18C318.423 206.551 318.35 206.917 318.209 207.259C318.067 207.602 317.86 207.912 317.598 208.174C317.337 208.436 317.026 208.644 316.684 208.785C316.343 208.927 315.976 209 315.606 209Z" fill="#2E5B9A"/>
<path d="M108.986 81.3468L100.786 105.655C100.786 105.655 109.774 130.042 117.343 124.594C119.927 122.736 116.397 108.021 116.397 108.021L121.916 88.2906L108.986 81.3468Z" fill="#F09959"/>
<path d="M82.8105 118.913C71.4876 120.172 70.5109 135.486 65.3083 161.056C60.1057 186.626 61.6684 203.504 64.1257 206.752C70.0389 214.566 136.505 187.338 144.783 187.575C150.496 187.737 145.729 178.104 145.729 178.104L82.3383 187.81C82.3383 187.81 91.3267 158.215 91.3267 143.062C91.3267 127.909 87.0689 118.438 82.8114 118.913" fill="#F09959"/>
<path d="M141.707 178.576C148.33 176.921 158.028 173.131 159.92 174.789C161.812 176.446 169.618 188.284 172.22 191.599C174.821 194.915 171.037 192.308 168.199 189.704C166.59 188.208 164.848 186.861 162.995 185.68C162.995 185.68 159.447 188.996 156.135 190.888C152.823 192.78 151.641 188.996 145.964 188.047C140.288 187.098 126.096 192.074 126.096 192.074L141.706 178.576" fill="#F09959"/>
<path d="M84.0724 117.018C77.1342 117.334 71.7728 123.174 69.8808 132.171C67.9888 141.168 62.469 169.737 62.469 169.737C62.469 169.737 61.3653 170.528 72.8765 172.581C84.3876 174.634 93.8491 172.264 93.8491 172.264C93.8491 172.264 96.2144 156.004 95.5836 144.799C94.9527 133.594 92.4297 123.016 88.3302 119.387C84.2306 115.758 84.0724 117.018 84.0724 117.018" fill="#75A1DE"/>
<path d="M116.398 108.021L121.917 88.2906L108.986 81.3468L107.011 87.2019C106.582 106.805 111.598 113.359 114.978 115.756C116.034 116.504 116.942 115.926 117.703 114.703C117.148 111.151 116.398 108.021 116.398 108.021" fill="#E38540"/>
<path d="M142.653 83.6368C142.653 94.194 141.394 107.142 132.246 106.838C118.054 106.366 109.111 95.3223 109.111 84.7622C109.111 74.202 116.531 65.6401 125.684 65.6401C134.838 65.6401 142.653 73.0767 142.653 83.6368" fill="#F09959"/>
<path d="M248.563 203.352H195.362L217.245 155.162C217.558 154.473 218.062 153.89 218.698 153.48C219.333 153.071 220.073 152.853 220.828 152.853H269.11C269.367 152.853 269.62 152.918 269.846 153.041C270.072 153.164 270.263 153.342 270.402 153.559C270.541 153.775 270.623 154.023 270.642 154.28C270.661 154.537 270.614 154.794 270.508 155.028L248.563 203.352" fill="#9BD6E8"/>
<path d="M248.448 203.352H150.301C150.301 202.538 150.461 201.732 150.772 200.981C151.084 200.229 151.54 199.546 152.115 198.971C152.69 198.395 153.372 197.939 154.123 197.628C154.874 197.316 155.679 197.156 156.492 197.156H248.447V203.352" fill="#9BD6E8"/>
<path d="M269.11 152.852H226.561C225.806 152.852 225.066 153.07 224.431 153.479C223.796 153.889 223.291 154.472 222.978 155.161L201.095 203.351H248.563L270.508 155.027C270.615 154.793 270.661 154.536 270.642 154.279C270.624 154.022 270.541 153.775 270.402 153.558C270.263 153.342 270.072 153.164 269.846 153.04C269.62 152.917 269.367 152.853 269.11 152.853" fill="#7BCEE8"/>
<path d="M127.041 61.9736C137.094 61.2635 143.046 70.4575 144.781 78.5086C146.032 84.3169 145.412 85.4536 145.412 85.4536C145.412 85.4536 144.308 87.0322 136.424 87.5044C128.54 87.9766 127.594 87.8212 127.594 87.8212L127.12 78.6669L124.755 87.5044C124.755 87.5044 123.493 89.2415 118.605 86.8737C113.717 84.5058 111.509 76.6132 111.509 76.6132C111.509 76.6132 110.405 71.4053 114.19 67.9311C117.975 64.4569 127.041 61.9734 127.041 61.9734" fill="#303C60"/>
<path d="M119.563 85.7235C118.599 92.1107 113.506 96.6365 108.187 95.8336C102.868 95.0306 99.338 89.197 100.302 82.8097C101.265 76.4225 106.359 71.8967 111.678 72.7028C116.997 73.509 120.527 79.3365 119.563 85.7237" fill="#D54A41"/>
<path d="M115.721 85.5532C114.828 91.466 110.646 95.7393 106.381 95.0944C102.116 94.4495 99.381 89.1301 100.273 83.2171C101.165 77.3041 105.348 73.0311 109.613 73.6759C113.878 74.3208 116.613 79.6373 115.721 85.5532" fill="#F39892"/>
<path d="M109.202 84.23C108.712 87.4813 106.943 89.9084 105.252 89.6529C103.561 89.3974 102.588 86.5536 103.079 83.3052C103.57 80.0568 105.338 77.6297 107.029 77.8852C108.72 78.1406 109.693 80.9814 109.203 84.2297" fill="#F2E5DE"/>
<path d="M108.948 72.8602C113.56 55.6961 129.482 58.1983 133.508 60.5894C136.898 62.6016 137.371 65.4428 137.371 65.4428C137.371 65.4428 132.996 61.8899 125.545 63.1933C118.475 64.429 114.27 68.5983 113.679 73.2177C113.377 75.5689 108.948 72.8602 108.948 72.8602" fill="#D54A41"/>
<path d="M38.1854 128.275H38.1505C38.0544 128.265 37.9659 128.218 37.9044 128.143C37.8429 128.068 37.8134 127.972 37.8224 127.876C38.2365 123.536 40.404 119.074 43.9254 115.311C47.9069 111.059 53.5732 107.708 60.3109 105.621C75.3257 100.974 88.4241 95.0639 96.6549 69.7127C96.6698 69.6671 96.6934 69.6248 96.7245 69.5884C96.7556 69.5519 96.7936 69.522 96.8363 69.5002C96.879 69.4785 96.9255 69.4653 96.9733 69.4616C97.021 69.4578 97.0691 69.4635 97.1146 69.4784C97.1602 69.493 97.2024 69.5166 97.2388 69.5476C97.2753 69.5787 97.3052 69.6166 97.327 69.6593C97.3487 69.7019 97.3618 69.7485 97.3656 69.7963C97.3693 69.844 97.3635 69.892 97.3487 69.9376C93.5656 81.5865 88.4168 90.0695 81.6076 95.8698C75.6019 100.986 68.8364 103.744 60.5263 106.318C53.9089 108.368 48.352 111.649 44.4568 115.81C41.045 119.454 38.9466 123.764 38.5478 127.946C38.5387 128.036 38.4966 128.119 38.4296 128.18C38.3625 128.241 38.2754 128.274 38.185 128.274" fill="#303C60"/>
<path d="M44.9659 110.755C44.91 110.755 44.8549 110.743 44.8049 110.718C44.7549 110.693 44.7113 110.657 44.6776 110.612C44.6482 110.575 44.6266 110.531 44.614 110.485C44.6014 110.439 44.5979 110.391 44.604 110.343C44.61 110.296 44.6253 110.25 44.649 110.209C44.6728 110.167 44.7044 110.131 44.7423 110.101C44.8061 110.053 51.2218 105.135 60.4982 103.087C78.3076 99.1609 90.2643 88.4394 95.0756 72.088C95.103 71.9953 95.1661 71.9173 95.251 71.8711C95.336 71.8249 95.4357 71.8143 95.5284 71.8417C95.6211 71.8693 95.699 71.9324 95.7453 72.0173C95.7916 72.1022 95.8024 72.2021 95.7754 72.2949C92.803 82.3959 87.2112 90.3677 79.1556 95.9884C73.9681 99.6109 67.7436 102.239 60.655 103.802C51.5458 105.81 45.2512 110.63 45.189 110.679C45.1252 110.729 45.0466 110.755 44.9659 110.755" fill="#303C60"/>
<path d="M273.304 105.515H225.267C224.816 105.515 224.584 105.15 224.748 104.697L234.491 77.9006C234.581 77.6734 234.733 77.4763 234.93 77.332C235.126 77.1877 235.36 77.1023 235.604 77.0856H283.641C284.09 77.0856 284.321 77.4506 284.157 77.9006L274.416 104.697C274.327 104.925 274.175 105.123 273.978 105.268C273.781 105.413 273.547 105.498 273.304 105.515" fill="#9EC8FF"/>
<path d="M272.723 104.262H226.757C226.337 104.262 226.119 103.921 226.273 103.498L235.145 79.0989C235.229 78.8869 235.371 78.7029 235.555 78.5684C235.739 78.4338 235.957 78.3541 236.184 78.3386H282.15C282.569 78.3386 282.788 78.6792 282.633 79.0989L273.764 103.498C273.68 103.711 273.538 103.895 273.354 104.03C273.17 104.165 272.952 104.246 272.724 104.262" fill="white"/>
<path d="M271.894 102.674H228.742C228.269 102.674 228.025 102.291 228.197 101.816L235.845 80.7841C235.939 80.5451 236.098 80.3376 236.305 80.1857C236.511 80.0338 236.757 79.9439 237.013 79.9264H280.165C280.636 79.9264 280.882 80.3096 280.709 80.7841L273.061 101.816C272.968 102.055 272.808 102.263 272.602 102.415C272.395 102.567 272.15 102.657 271.894 102.674" fill="#9EC8FF"/>
<path d="M262.338 91.2986C260.752 95.6572 255.938 99.1914 251.584 99.1914C247.23 99.1914 244.984 95.6572 246.567 91.2986C248.151 86.94 252.97 83.4058 257.324 83.4058C261.678 83.4058 263.924 86.94 262.338 91.2986Z" fill="white"/>
<path d="M261.244 91.2986C259.876 95.0518 255.732 98.0964 251.982 98.0964C248.232 98.0964 246.3 95.0518 247.664 91.2986C249.028 87.5454 253.176 84.5037 256.926 84.5037C260.675 84.5037 262.608 87.5452 261.244 91.2986Z" fill="#9EC8FF"/>
<path d="M257.932 90.9365L254.93 92.3691L251.924 93.8046L252.97 90.9365L254.012 88.0684L255.972 89.5009L257.932 90.9365Z" fill="white"/>
<path d="M199.73 67.3191C198.868 67.3191 197.831 68.0885 197.512 68.9707L196.134 72.7574C196.068 72.8961 196.035 73.0485 196.039 73.2022C196.042 73.3559 196.081 73.5067 196.153 73.6425C196.233 73.7352 196.333 73.8078 196.446 73.8543C196.559 73.9008 196.681 73.9199 196.803 73.9101H200.588C201.465 73.9101 202.481 73.1527 202.806 72.2585L204.183 68.4688C204.25 68.3307 204.283 68.1788 204.279 68.0256C204.276 67.8723 204.237 67.722 204.165 67.5867C204.086 67.4935 203.985 67.4206 203.872 67.374C203.759 67.3275 203.637 67.3086 203.515 67.3191H199.73ZM200.588 75.37H196.803C196.446 75.3826 196.092 75.3081 195.77 75.1528C195.449 74.9975 195.17 74.7662 194.958 74.4787C194.748 74.1521 194.621 73.7794 194.587 73.3926C194.553 73.0059 194.614 72.6167 194.764 72.2585L196.141 68.4688C196.674 67.0059 198.25 65.8592 199.73 65.8592H203.515C203.871 65.8459 204.225 65.9199 204.547 66.0746C204.868 66.2294 205.147 66.4602 205.359 66.7473C205.569 67.0745 205.696 67.4478 205.73 67.835C205.764 68.2223 205.703 68.612 205.554 68.9707L204.176 72.7574C203.644 74.2203 202.068 75.37 200.588 75.37Z" fill="#9CD499"/>
<path d="M193.876 83.4178C193.014 83.4178 191.977 84.1905 191.657 85.0694L190.28 88.8561C190.214 88.9949 190.181 89.1472 190.184 89.301C190.188 89.4547 190.227 89.6054 190.299 89.7412C190.378 89.8344 190.478 89.9074 190.592 89.9539C190.705 90.0005 190.827 90.0193 190.949 90.0088H194.734C195.61 90.0088 196.627 89.2515 196.952 88.3572L198.329 84.5705C198.395 84.4317 198.428 84.2794 198.425 84.1257C198.421 83.972 198.382 83.8213 198.31 83.6854C198.231 83.5922 198.131 83.5193 198.018 83.4728C197.905 83.4262 197.782 83.4074 197.66 83.4178H193.876ZM194.734 91.4687H190.949C190.593 91.4813 190.238 91.4071 189.917 91.2524C189.596 91.0977 189.317 90.8672 189.104 90.5807C188.894 90.2535 188.767 89.8802 188.733 89.4929C188.699 89.1056 188.76 88.7159 188.91 88.3572L190.287 84.5705C190.819 83.1044 192.396 81.9577 193.876 81.9577H197.66C198.017 81.945 198.371 82.0192 198.693 82.1739C199.014 82.3286 199.293 82.5593 199.506 82.846C199.716 83.1732 199.843 83.5465 199.877 83.9338C199.911 84.321 199.85 84.7107 199.7 85.0694L198.323 88.8561C197.791 90.3222 196.214 91.4687 194.734 91.4687" fill="#9CD499"/>
<path d="M188.022 99.5188C187.144 99.5188 186.128 100.273 185.803 101.167L184.426 104.957C184.36 105.096 184.327 105.248 184.33 105.402C184.333 105.556 184.373 105.706 184.445 105.842C184.524 105.934 184.625 106.007 184.738 106.053C184.851 106.099 184.973 106.117 185.094 106.107H188.879C189.756 106.107 190.772 105.352 191.097 104.455L192.475 100.668C192.541 100.53 192.574 100.377 192.57 100.224C192.567 100.07 192.528 99.9191 192.456 99.7834C192.376 99.6911 192.276 99.6189 192.163 99.5729C192.05 99.5269 191.927 99.5084 191.806 99.5188H188.022ZM188.879 107.567H185.094C184.738 107.58 184.384 107.506 184.062 107.351C183.741 107.197 183.462 106.966 183.25 106.679C183.04 106.352 182.913 105.978 182.879 105.591C182.845 105.204 182.905 104.814 183.055 104.455L184.433 100.669C184.965 99.2058 186.541 98.0561 188.022 98.0561H191.806C192.163 98.0434 192.517 98.1179 192.839 98.2732C193.16 98.4284 193.439 98.6597 193.651 98.9471C193.861 99.2738 193.988 99.6465 194.022 100.033C194.055 100.42 193.995 100.809 193.845 101.167L192.468 104.957C191.936 106.42 190.359 107.567 188.879 107.567Z" fill="#9EC8FF"/>
<path d="M231.724 72.2707H210.909C210.519 72.2707 210.317 71.9514 210.458 71.562C210.536 71.3639 210.668 71.1919 210.839 71.066C211.011 70.94 211.214 70.8652 211.426 70.8502H232.241C232.631 70.8502 232.833 71.1696 232.692 71.562C232.614 71.7593 232.481 71.9305 232.31 72.0559C232.139 72.1812 231.936 72.2557 231.724 72.2707Z" fill="#9EC8FF"/>
<path d="M230.691 75.1114H209.876C209.486 75.1114 209.284 74.792 209.425 74.4026C209.503 74.2046 209.635 74.0326 209.806 73.9067C209.977 73.7807 210.181 73.7059 210.393 73.6909H231.208C231.598 73.6909 231.8 74.0103 231.659 74.4026C231.581 74.6 231.448 74.7712 231.277 74.8966C231.106 75.022 230.903 75.0964 230.691 75.1114Z" fill="#9EC8FF"/>
<path d="M226.3 87.1864H205.486C205.095 87.1864 204.893 86.867 205.034 86.4776C205.112 86.2796 205.244 86.1076 205.416 85.9817C205.587 85.8557 205.79 85.7809 206.002 85.7659H226.817C227.207 85.7659 227.409 86.0853 227.268 86.4776C227.19 86.675 227.057 86.8461 226.886 86.9715C226.715 87.0969 226.512 87.1714 226.3 87.1864" fill="#9EC8FF"/>
<path d="M225.267 90.0273H204.452C204.062 90.0273 203.86 89.708 204.001 89.3186C204.079 89.1205 204.211 88.9485 204.382 88.8225C204.554 88.6965 204.757 88.6218 204.969 88.6068H225.784C226.174 88.6068 226.377 88.9262 226.235 89.3186C226.157 89.5159 226.024 89.6871 225.853 89.8125C225.682 89.9379 225.479 90.0124 225.267 90.0273Z" fill="#9EC8FF"/>
<path d="M220.274 103.76H199.459C199.069 103.76 198.867 103.44 199.008 103.051C199.086 102.853 199.218 102.681 199.389 102.555C199.56 102.429 199.764 102.354 199.976 102.339H220.79C221.181 102.339 221.384 102.659 221.242 103.051C221.163 103.248 221.031 103.42 220.86 103.545C220.688 103.67 220.485 103.745 220.274 103.76" fill="#9EC8FF"/>
<path d="M219.24 106.601H198.425C198.035 106.601 197.833 106.281 197.974 105.892C198.052 105.694 198.184 105.522 198.355 105.396C198.526 105.27 198.73 105.195 198.942 105.18H219.757C220.147 105.18 220.349 105.5 220.208 105.892C220.13 106.089 219.997 106.26 219.826 106.386C219.655 106.511 219.452 106.586 219.24 106.601" fill="#9EC8FF"/>
<path d="M199.706 73.2379C199.642 73.2374 199.578 73.2292 199.515 73.2135C199.406 73.1834 199.306 73.1288 199.222 73.054C199.138 72.9791 199.072 72.886 199.03 72.7817L197.601 69.2293C197.566 69.1404 197.547 69.0454 197.548 68.9496C197.549 68.8537 197.569 68.759 197.607 68.6709C197.644 68.5827 197.699 68.5028 197.767 68.4358C197.835 68.3688 197.916 68.3159 198.005 68.2803C198.094 68.2445 198.189 68.2265 198.285 68.2275C198.381 68.2284 198.475 68.2482 198.563 68.2858C198.652 68.3233 198.731 68.3779 198.798 68.4464C198.865 68.5148 198.918 68.5958 198.954 68.6847L200.023 71.343L208.467 64.828C208.62 64.7096 208.813 64.6569 209.005 64.6814C209.197 64.7059 209.371 64.8057 209.489 64.9587C209.608 65.1122 209.66 65.3064 209.635 65.4985C209.61 65.6907 209.51 65.8651 209.357 65.9836L200.152 73.0856C200.024 73.1844 199.868 73.2379 199.706 73.2377" fill="#F37168"/>
<path d="M193.853 89.3368C193.789 89.3377 193.724 89.3295 193.662 89.3124C193.553 89.2827 193.453 89.2283 193.369 89.1534C193.284 89.0785 193.219 88.9851 193.177 88.8805L191.748 85.3281C191.712 85.2392 191.694 85.1442 191.695 85.0484C191.696 84.9526 191.716 84.8579 191.753 84.7697C191.791 84.6816 191.845 84.6017 191.914 84.5347C191.982 84.4677 192.063 84.4148 192.152 84.3791C192.241 84.3431 192.336 84.3251 192.431 84.3259C192.527 84.3268 192.622 84.3465 192.71 84.3841C192.798 84.4217 192.878 84.4763 192.945 84.5449C193.012 84.6134 193.065 84.6945 193.101 84.7836L194.17 87.4421L202.613 80.9271C202.689 80.8686 202.776 80.8257 202.868 80.8008C202.961 80.7759 203.057 80.7695 203.152 80.7819C203.247 80.7944 203.339 80.8254 203.422 80.8733C203.505 80.9212 203.578 80.9849 203.636 81.0609C203.694 81.1367 203.737 81.2233 203.762 81.3157C203.787 81.4081 203.794 81.5045 203.782 81.5994C203.769 81.6944 203.738 81.7859 203.691 81.8689C203.643 81.9518 203.579 82.0246 203.504 82.083L194.298 89.1848C194.171 89.2837 194.014 89.3372 193.853 89.337" fill="#F37168"/>
<path d="M331.484 53.5658H251.536L253.602 47.8828H333.552L331.485 53.5658" fill="#9EC8FF"/>
<path d="M328.384 62.0934H248.434L250.499 56.4099H330.449L328.383 62.0934" fill="#9EC8FF"/>
<path d="M239.767 130.227H181.059C180.292 130.227 179.893 129.601 180.172 128.831C180.451 128.062 181.308 127.435 182.074 127.435H240.782C241.551 127.435 241.949 128.065 241.669 128.831C241.389 129.598 240.536 130.227 239.767 130.227Z" fill="#9EC8FF"/>
<path d="M237.512 136.432H178.803C178.036 136.432 177.636 135.806 177.916 135.036C178.195 134.266 179.051 133.64 179.818 133.64H238.527C239.293 133.64 239.694 134.269 239.414 135.036C239.135 135.802 238.278 136.432 237.512 136.432Z" fill="#9EC8FF"/>
<path d="M292.471 188.898C292.471 187.913 304.333 155.092 296.312 133.962C290.696 119.165 289.809 101.412 289.809 101.412C289.809 101.412 278.873 117.094 286.263 141.061C290.812 155.813 292.668 159.901 293.06 164.241C293.453 168.581 291.289 190.279 291.289 190.279L292.471 188.898" fill="#9CD499"/>
<path d="M289.52 102.574C287.789 105.654 286.474 108.95 285.61 112.377C283.975 118.633 282.823 128.673 286.61 140.955C288.147 145.94 289.365 149.675 290.347 152.674C292.28 158.593 293.161 161.294 293.425 164.207C293.769 168.003 292.21 184.574 291.763 189.163L292.125 188.744C292.167 188.525 292.295 188.093 292.617 187.007C299.469 164.08 300.599 146.278 295.972 134.09C291.213 121.556 289.831 106.744 289.521 102.574H289.52ZM291.289 190.645C291.239 190.644 291.19 190.635 291.143 190.617C291.072 190.586 291.013 190.533 290.973 190.465C290.934 190.398 290.917 190.32 290.924 190.243C290.945 190.027 293.085 168.53 292.699 164.274C292.441 161.443 291.569 158.766 289.654 152.902C288.673 149.897 287.451 146.159 285.914 141.171C282.07 128.706 283.249 118.514 284.911 112.157C286.719 105.256 289.399 101.366 289.512 101.202C289.555 101.14 289.617 101.093 289.688 101.068C289.76 101.043 289.837 101.041 289.91 101.062C289.983 101.083 290.047 101.126 290.095 101.185C290.142 101.245 290.17 101.317 290.174 101.393C290.183 101.57 291.122 119.262 296.655 133.831C299.654 141.733 300.256 152.15 298.445 164.8C296.999 174.898 294.419 183.53 293.316 187.217C293.067 188.056 292.848 188.783 292.836 188.914C292.836 188.996 292.804 189.076 292.747 189.136L291.565 190.517C291.531 190.556 291.488 190.588 291.441 190.61C291.393 190.632 291.341 190.644 291.289 190.644" fill="#74B570"/>
<path d="M295.033 192.253C293.258 155.758 301.93 135.836 319.666 120.053C337.402 104.271 338.19 100.131 338.19 100.131C338.19 100.131 335.43 130.902 325.184 141.557C314.938 152.212 299.958 160.098 297.791 165.622C295.625 171.145 296.412 189.689 296.412 189.689L295.033 193.041V192.253Z" fill="#9CD499"/>
<path d="M292.863 195.408C292.668 194.817 296.609 161.281 310.994 159.31C325.379 157.34 328.73 160.691 338.584 159.113C342.829 158.432 346.99 157.308 351 155.758C351 155.758 347.268 165.266 334.446 169.174C325.382 171.933 313.555 167.398 306.658 168.581C299.76 169.764 296.214 184.558 296.214 184.558L295.032 192.253L292.863 195.407" fill="#9CD499"/>
<path d="M294.835 190.446C294.744 190.446 294.656 190.412 294.589 190.351C294.522 190.29 294.481 190.205 294.473 190.114C294.449 189.88 292.41 166.321 302.398 148.281C307.56 138.965 313.194 133.566 318.642 128.344C323.719 123.477 328.514 118.882 332.148 111.603C332.192 111.517 332.268 111.451 332.36 111.421C332.451 111.391 332.551 111.398 332.638 111.442C332.681 111.463 332.719 111.492 332.751 111.528C332.783 111.565 332.807 111.607 332.822 111.652C332.837 111.698 332.843 111.746 332.84 111.794C332.836 111.842 332.823 111.889 332.802 111.932C329.11 119.323 324.269 123.961 319.146 128.87C313.738 134.056 308.144 139.415 303.036 148.637C293.158 166.472 295.175 189.813 295.196 190.047C295.201 190.095 295.197 190.143 295.183 190.189C295.169 190.235 295.146 190.278 295.115 190.315C295.085 190.352 295.047 190.383 295.005 190.405C294.962 190.428 294.916 190.442 294.868 190.446H294.835" fill="#74B570"/>
<path d="M293.851 185.714C293.816 185.713 293.781 185.708 293.747 185.699C293.655 185.671 293.577 185.608 293.53 185.523C293.483 185.438 293.472 185.339 293.498 185.245C297.272 172.231 301.602 164.636 307.123 161.348C312.061 158.407 317.166 159.31 322.568 160.265C323.89 160.499 325.257 160.743 326.613 160.919C338.351 162.461 344.079 159.605 344.133 159.578C344.176 159.556 344.222 159.542 344.27 159.538C344.318 159.534 344.366 159.539 344.411 159.553C344.457 159.568 344.5 159.591 344.536 159.622C344.573 159.653 344.603 159.69 344.625 159.733C344.669 159.819 344.677 159.92 344.648 160.012C344.618 160.104 344.553 160.181 344.468 160.226C344.23 160.347 338.515 163.219 326.516 161.643C325.148 161.463 323.772 161.22 322.441 160.986C317.175 160.052 312.204 159.173 307.497 161.974C302.143 165.165 297.917 172.623 294.201 185.449C294.179 185.525 294.133 185.592 294.07 185.64C294.007 185.688 293.93 185.714 293.851 185.714" fill="#74B570"/>
<path d="M312.671 135.115C312.615 135.116 312.56 135.103 312.51 135.078C312.46 135.053 312.416 135.017 312.383 134.972C312.353 134.934 312.331 134.891 312.319 134.845C312.306 134.799 312.303 134.751 312.308 134.703C312.314 134.656 312.33 134.61 312.353 134.568C312.377 134.527 312.409 134.49 312.446 134.461C312.516 134.406 319.526 129.059 329.253 127.192C329.348 127.174 329.446 127.194 329.526 127.249C329.606 127.303 329.662 127.386 329.681 127.481C329.699 127.576 329.679 127.674 329.624 127.754C329.57 127.833 329.487 127.888 329.392 127.907C319.833 129.744 312.96 134.988 312.893 135.039C312.829 135.088 312.751 135.115 312.671 135.115" fill="#74B570"/>
<path d="M301.535 150.995C301.47 150.994 301.406 150.977 301.35 150.943C301.308 150.919 301.272 150.887 301.244 150.849C301.215 150.81 301.194 150.767 301.182 150.72C301.17 150.674 301.168 150.626 301.175 150.578C301.181 150.531 301.198 150.485 301.222 150.444C306.354 141.782 312.364 139.598 325.47 135.486C325.562 135.458 325.662 135.467 325.747 135.512C325.833 135.557 325.897 135.634 325.926 135.726C325.94 135.772 325.945 135.82 325.941 135.867C325.937 135.915 325.924 135.961 325.902 136.004C325.88 136.046 325.85 136.084 325.813 136.114C325.776 136.145 325.734 136.168 325.689 136.183C312.766 140.237 306.844 142.384 301.848 150.815C301.816 150.87 301.771 150.915 301.716 150.947C301.661 150.978 301.598 150.995 301.535 150.995" fill="#74B570"/>
<path d="M298.348 204.384H289.548C288.041 204.384 286.582 203.859 285.421 202.897C284.26 201.936 283.47 200.6 283.188 199.119L280.35 184.264H307.545L304.707 199.119C304.425 200.6 303.636 201.936 302.475 202.897C301.314 203.858 299.854 204.384 298.348 204.384" fill="#F39892"/>
<path d="M306.856 188.051H281.238C281.142 188.051 281.047 188.032 280.958 187.996C280.87 187.959 280.789 187.905 280.721 187.837C280.654 187.77 280.6 187.689 280.563 187.6C280.527 187.512 280.508 187.417 280.508 187.321C280.508 187.127 280.585 186.941 280.722 186.805C280.859 186.668 281.044 186.591 281.238 186.591H306.856C307.049 186.591 307.235 186.668 307.371 186.805C307.508 186.941 307.585 187.127 307.585 187.321C307.585 187.417 307.567 187.512 307.53 187.6C307.493 187.689 307.44 187.77 307.372 187.837C307.304 187.905 307.224 187.959 307.135 187.996C307.047 188.032 306.952 188.051 306.856 188.051Z" fill="#D54A41"/>
</svg>
