<?xml version="1.0" encoding="utf-8"?>
<!-- Generator: Adobe Illustrator 16.0.0, SVG Export Plug-In . SVG Version: 6.00 Build 0)  -->
<!DOCTYPE svg PUBLIC "-//W3C//DTD SVG 1.1//EN" "http://www.w3.org/Graphics/SVG/1.1/DTD/svg11.dtd">
<svg version="1.1" id="Capa_1" xmlns="http://www.w3.org/2000/svg" xmlns:xlink="http://www.w3.org/1999/xlink" x="0px" y="0px"
	 width="500px" height="300px" viewBox="0 0 500 300" enable-background="new 0 0 500 300" xml:space="preserve">
<g>
	<g>
		<path fill="#00B050" d="M119.402,133.693c0.975,2.336,3.25,3.861,5.773,3.861h68.465l0,156.197c0,3.449,2.799,6.248,6.248,6.248
			h99.966c3.449,0,6.248-2.799,6.248-6.248V137.554h68.727c2.524,0,4.799-1.524,5.773-3.849c0.962-2.337,0.438-5.023-1.35-6.811
			L254.608,1.836C253.434,0.662,251.847,0,250.185,0s-3.249,0.662-4.424,1.824L120.752,126.883
			C118.965,128.67,118.428,131.355,119.402,133.693z"/>
	</g>
</g>
</svg>
